<svg xmlns="http://www.w3.org/2000/svg" width="18" height="18" viewBox="0 0 18 18">
  <path id="Dashboard" d="M-479.375-6A1.063,1.063,0,0,1-480.5-7.125V-17.25a1.063,1.063,0,0,1,1.126-1.125h2.25A1.063,1.063,0,0,1-476-17.25V-7.125A1.063,1.063,0,0,1-477.125-6Zm-6.75,0a1.062,1.062,0,0,1-1.125-1.125v-15.75A1.063,1.063,0,0,1-486.125-24h2.25a1.063,1.063,0,0,1,1.125,1.125v15.75A1.062,1.062,0,0,1-483.875-6Zm-6.75,0A1.063,1.063,0,0,1-494-7.125v-4.5a1.064,1.064,0,0,1,1.125-1.126h2.25a1.064,1.064,0,0,1,1.126,1.126v4.5A1.063,1.063,0,0,1-490.626-6Z" transform="translate(494 24)" fill="#fff"/>
</svg>
