<svg xmlns="http://www.w3.org/2000/svg" width="19.167" height="15.573" viewBox="0 0 19.167 15.573">
  <g id="local_report" data-name="local report" transform="translate(0 -3)">
    <g id="Group_1087" data-name="Group 1087" transform="translate(0 3)">
      <path id="Path_2293" data-name="Path 2293" d="M16.771,5.4V3H0V16.177a2.346,2.346,0,0,0,2.4,2.4H17.37s1.8-.037,1.8-2.4V5.4ZM2.4,17.375a1.173,1.173,0,0,1-1.2-1.2V4.2H15.573V16.177a1.732,1.732,0,0,0,.4,1.2Z" transform="translate(0 -3)" fill="#fff"/>
      <rect id="Rectangle_2608" data-name="Rectangle 2608" width="11.979" height="1.198" transform="translate(2.396 3.594)" fill="#fff"/>
      <rect id="Rectangle_2609" data-name="Rectangle 2609" width="4.193" height="1.198" transform="translate(8.984 10.781)" fill="#fff"/>
      <rect id="Rectangle_2610" data-name="Rectangle 2610" width="5.391" height="1.198" transform="translate(8.984 8.385)" fill="#fff"/>
      <rect id="Rectangle_2611" data-name="Rectangle 2611" width="5.391" height="1.198" transform="translate(8.984 5.99)" fill="#fff"/>
      <rect id="Rectangle_2612" data-name="Rectangle 2612" width="5.391" height="5.99" transform="translate(2.396 5.99)" fill="#fff"/>
    </g>
  </g>
</svg>
