<svg xmlns="http://www.w3.org/2000/svg" width="18.384" height="18.397" viewBox="0 0 18.384 18.397">
  <g id="region" transform="translate(0.176 0.2)">
    <path id="Path_2318" data-name="Path 2318" d="M15.591,2.86l.779-.779a.31.31,0,1,0-.439-.439l-.779.779A8.98,8.98,0,0,0,3.842,1.643,1.545,1.545,0,0,0,1.656,3.822a9.034,9.034,0,0,0,.995,11.539A9,9,0,0,0,15.591,2.86Zm-.653,12.062a8.379,8.379,0,0,1-11.849,0,8.413,8.413,0,0,1-.938-10.73,1.518,1.518,0,0,0,.15.06l.055.016a1.534,1.534,0,0,0,.234.053c.047.007.1.011.144.014.025,0,.049.007.074.007a1.541,1.541,0,0,0,1.1-.455,1.5,1.5,0,0,0,.177-.217c.02-.029.037-.06.055-.09a1.541,1.541,0,0,0,.075-.143c.018-.04.036-.08.05-.122S4.285,3.24,4.3,3.2a1.548,1.548,0,0,0,.046-.574c0-.017,0-.034,0-.051a1.491,1.491,0,0,0-.039-.19c-.005-.019-.011-.038-.017-.057a1.547,1.547,0,0,0-.071-.188l0-.005a8.377,8.377,0,0,1,10.506.724l-1.1,1.1a6.823,6.823,0,0,0-9.425,9.863A6.813,6.813,0,0,0,15.778,9.832,1.544,1.544,0,0,0,15.471,6.8a6.828,6.828,0,0,0-1.417-2.4l1.1-1.1A8.388,8.388,0,0,1,14.938,14.922Zm-.1-8.034a1.527,1.527,0,0,0-.254.123c-.016.009-.033.016-.048.025a1.536,1.536,0,0,0-.256.205,1.57,1.57,0,0,0-.2.242c-.01.015-.015.03-.024.045a1.507,1.507,0,0,0-.119.226l0,.01a1.538,1.538,0,0,0,0,1.151.075.075,0,0,0,0,.008,1.53,1.53,0,0,0,.119.227c.009.015.015.03.024.045a1.567,1.567,0,0,0,.2.242,1.541,1.541,0,0,0,.214.176c.031.021.064.039.1.058a1.515,1.515,0,0,0,.137.073,1.437,1.437,0,0,0,.137.054c.034.012.069.022.1.031a1.568,1.568,0,0,0,.174.039l.012,0A6.209,6.209,0,1,1,13.172,4.4L8.795,8.779a.31.31,0,1,0,.439.439L13.61,4.841a6.2,6.2,0,0,1,1.237,2.043Z" transform="translate(0)" fill="#fff" stroke="#a5a4bf" stroke-width="0.4"/>
    <path id="Path_2319" data-name="Path 2319" d="M20,20a.931.931,0,1,1-1.316-1.316l3-3a4.342,4.342,0,1,0,1.316,1.316Z" transform="translate(-10.323 -10.348)" fill="#fff" stroke="#a5a4bf" stroke-width="0.4"/>
  </g>
</svg>
