<svg xmlns="http://www.w3.org/2000/svg" width="21.996" height="19.607" viewBox="0 0 21.996 19.607">
  <g id="subscription" transform="translate(0 -33.234)">
    <g id="Group_1088" data-name="Group 1088" transform="translate(0 33.234)">
      <path id="Path_2309" data-name="Path 2309" d="M186.743,36.108l-13.471-2.851a1.062,1.062,0,0,0-1.255.817l-.256,1.645L187.3,39.008l.256-1.645A1.062,1.062,0,0,0,186.743,36.108Z" transform="translate(-165.587 -33.234)" fill="#fff"/>
      <path id="Path_2310" data-name="Path 2310" d="M15.491,168.44a1.072,1.072,0,0,0-1.316-.744l-2.557.71L5.589,167.13l-.663,3.133-4.143,1.15a1.072,1.072,0,0,0-.744,1.316l2.335,8.413a1.072,1.072,0,0,0,1.316.744l13.392-3.716a1.072,1.072,0,0,0,.744-1.316l-.4-1.444,1.5.318a1.062,1.062,0,0,0,1.255-.817l.95-4.49-5.41-1.145Zm1.547,4.276.331-1.565a.437.437,0,0,1,.516-.336l1.565.331a.437.437,0,0,1,.336.516l-.331,1.565a.437.437,0,0,1-.516.336l-1.565-.331A.437.437,0,0,1,17.037,172.716Zm-16.021-.464,3.706-1.028,8.744-2.427.941-.261a.2.2,0,0,1,.051-.007.2.2,0,0,1,.192.144l.11.4.346,1.247L1.335,174.141.878,172.5A.2.2,0,0,1,1.016,172.252Zm15.97,4.834a.2.2,0,0,1-.138.243L3.456,181.046a.2.2,0,0,1-.051.007.2.2,0,0,1-.192-.145L1.851,176l13.772-3.822.84,3.027Z" transform="translate(0 -162.318)" fill="#fff"/>
      <path id="Path_2311" data-name="Path 2311" d="M91.477,444.92a.437.437,0,0,0-.537-.3l-1.564.434a.437.437,0,0,0-.3.537l.434,1.564a.437.437,0,0,0,.537.3l1.564-.434a.437.437,0,0,0,.3-.536Z" transform="translate(-85.856 -429.816)" fill="#fff"/>
    </g>
  </g>
</svg>
