<svg xmlns="http://www.w3.org/2000/svg" width="19.056" height="19.08" viewBox="0 0 19.056 19.08">
  <g id="suppoting_Doc" data-name="suppoting Doc" transform="translate(-0.028)">
    <g id="Layer_1_155_" transform="translate(0.028)">
      <g id="Group_1089" data-name="Group 1089">
        <path id="Path_2312" data-name="Path 2312" d="M15.41,8.368h-6.5a.867.867,0,1,0,0,1.734h6.5a.867.867,0,1,0,0-1.734Z" transform="translate(-4.787 -4.971)" fill="#fff"/>
        <path id="Path_2313" data-name="Path 2313" d="M16.278,17.246a.867.867,0,0,0-.867-.867h-6.5a.867.867,0,1,0,0,1.735h6.5A.867.867,0,0,0,16.278,17.246Z" transform="translate(-4.787 -9.73)" fill="#fff"/>
        <path id="Path_2314" data-name="Path 2314" d="M12.159,26.125a.867.867,0,0,0,0-1.735H8.906a.867.867,0,1,0,0,1.735Z" transform="translate(-4.787 -14.489)" fill="#fff"/>
        <path id="Path_2315" data-name="Path 2315" d="M13.946,14.585l-.91.6v2.159H1.763V1.735H13.036V5.162l1.735-3V.867A.867.867,0,0,0,13.9,0H.9A.867.867,0,0,0,.028.867V18.212A.867.867,0,0,0,.9,19.08H13.9a.868.868,0,0,0,.868-.867v-4.78l-.414.717A1.307,1.307,0,0,1,13.946,14.585Z" transform="translate(-0.028 0)" fill="#fff"/>
        <path id="Path_2316" data-name="Path 2316" d="M33.616,7.139a2.474,2.474,0,0,0-1.3-1.416A2.471,2.471,0,0,0,30.433,5.3a.434.434,0,0,0-.245.2l-5.42,9.388a.439.439,0,0,0-.058.192l-.2,3.388a.433.433,0,0,0,.671.388l2.832-1.87a.428.428,0,0,0,.137-.145L33.568,7.45A.435.435,0,0,0,33.616,7.139ZM26.271,17.353a3.814,3.814,0,0,0-.483-.328,3.875,3.875,0,0,0-.527-.255l.06-1.016a3.152,3.152,0,0,1,1.8,1.038Z" transform="translate(-14.569 -3.122)" fill="#fff"/>
        <path id="Path_2317" data-name="Path 2317" d="M10.116,34.8c.028.174.229.228.364.284s.285-.049.393-.1c.662-.322,1.558.056,2.267.056a.325.325,0,0,0,0-.65,13.493,13.493,0,0,0-2.333-.074.409.409,0,0,0-.069-.2.513.513,0,0,0-.543-.3.766.766,0,0,0-.044-.093.3.3,0,0,0-.2-.143,1.36,1.36,0,0,0,.226-1.164.323.323,0,0,0-.281-.161c-.434-.016-.807.44-1.086.713A21.194,21.194,0,0,0,6.9,35.2c-.256.332.31.656.561.329a23.179,23.179,0,0,1,1.688-1.973c-.145.238-.3.471-.461.7-.231.358.321.662.561.328a.731.731,0,0,1,.209-.2l-.048.12h0c-.013.026-.025.052-.035.077-.145.364.4.531.595.25a2.047,2.047,0,0,0,.138-.225A.974.974,0,0,0,10.116,34.8Z" transform="translate(-4.07 -19.16)" fill="#fff"/>
      </g>
    </g>
  </g>
</svg>
