<svg xmlns="http://www.w3.org/2000/svg" width="15.749" height="18" viewBox="0 0 15.749 18">
  <g id="TPI_user" data-name="TPI user" transform="translate(-221 -91)">
    <path id="Union_10" data-name="Union 10" d="M0,18a6.77,6.77,0,0,1,6.749-6.75H9A6.77,6.77,0,0,1,15.749,18Zm2.924-2.251H12.937A4.537,4.537,0,0,0,9,13.5H6.862A4.539,4.539,0,0,0,2.924,15.749ZM3.375,5.624V4.5a4.5,4.5,0,0,1,9,0V5.624a4.5,4.5,0,1,1-9,0ZM5.624,4.5V5.624a2.25,2.25,0,1,0,4.5,0V4.5a2.25,2.25,0,0,0-4.5,0Z" transform="translate(221 91)" fill="#fff"/>
  </g>
</svg>
